PathFileType	4	(X/Y/Z)	C:\Users\Biomechanik\SynologyDrive\AlexP\Athlete_03\Athlete_3_22_07_06\sq_85_EMG\marker_experimental.trc
DataRate	CameraRate	NumFrames	NumMarkers	Units	OrigDataRate	OrigDataStartFrame	OrigNumFrames
200.000000	200.000000	4	58	mm	200.000000	965	1544
Frame#	Time	BL			BR			GLAB			RFHD			LFHD			C7			T6			SPINMOL			SPINM2			SPINM3			T12			BELTOL			BELT2			BELT3			SACROL			SACR2			SACR3			LTHOL			LTH2			LTH3			LSHAOL			LSHA2			LSHA3			LHEE			LTOE			LM5			RTHOL			RTH2			RTH3			RSHAOL			RSHA2			RSHA3			RHEE			RTOE			RM5			STRN			XIPH			LACR			LUAOL			LUA2			LUA3			LLAOL			LLA2			LLA3			LWRU			RACR			RUAOL			RUA3			RLAOL			RLA2			RLA3			RWRU			USERMO0			USERMO1			USERMO2			USERMO3			USERMO4			USERMO5			
		X1	Y1	Z1	X2	Y2	Z2	X3	Y3	Z3	X4	Y4	Z4	X5	Y5	Z5	X6	Y6	Z6	X7	Y7	Z7	X8	Y8	Z8	X9	Y9	Z9	X10	Y10	Z10	X11	Y11	Z11	X12	Y12	Z12	X13	Y13	Z13	X14	Y14	Z14	X15	Y15	Z15	X16	Y16	Z16	X17	Y17	Z17	X18	Y18	Z18	X19	Y19	Z19	X20	Y20	Z20	X21	Y21	Z21	X22	Y22	Z22	X23	Y23	Z23	X24	Y24	Z24	X25	Y25	Z25	X26	Y26	Z26	X27	Y27	Z27	X28	Y28	Z28	X29	Y29	Z29	X30	Y30	Z30	X31	Y31	Z31	X32	Y32	Z32	X33	Y33	Z33	X34	Y34	Z34	X35	Y35	Z35	X36	Y36	Z36	X37	Y37	Z37	X38	Y38	Z38	X39	Y39	Z39	X40	Y40	Z40	X41	Y41	Z41	X42	Y42	Z42	X43	Y43	Z43	X44	Y44	Z44	X45	Y45	Z45	X46	Y46	Z46	X47	Y47	Z47	X48	Y48	Z48	X49	Y49	Z49	X50	Y50	Z50	X51	Y51	Z51	X52	Y52	Z52	X53	Y53	Z53	X54	Y54	Z54	X55	Y55	Z55	X56	Y56	Z56	X57	Y57	Z57	X58	Y58	Z58	

966	4.825	135.42529296875	871.3995361328126	-2272.380615234375	255.5068511962891	854.0271606445312	-54.01102066040034	539.0360107421875	1040.92138671875	-1141.024658203125	474.8494262695312	1054.1337890625	-1066.6748046875	479.4812927246094	1054.652099609375	-1223.116577148438	300.0367126464844	965.5421752929689	-1143.2197265625	144.7985687255859	858.1237182617189	-1148.429077148438	125.2853012084961	844.7687377929689	-1158.307006835938	77.41880798339844	804.5863037109376	-1108.563354492188	87.10842132568359	796.1578369140626	-1156.823608398438	63.79111099243164	767.0498657226564	-1153.138671875	23.5587329864502	772.8466186523439	-1151.68603515625	-17.84782791137695	729.3224487304689	-1099.063598632812	-23.72378730773926	732.4749755859376	-1148.830444335938	-78.04222869873047	668.7388305664064	-1176.203247070312	-64.75837707519531	673.1970825195314	-1127.0048828125	-115.2794876098633	631.2273559570314	-1136.4267578125	41.95915985107422	556.3984985351564	-1436.625244140625	57.96824645996094	486.9643859863282	-1473.03857421875	84.36809539794922	529.7707519531251	-1472.83447265625	179.3875427246094	310.7502746582032	-1598.635986328125	127.4586181640625	253.1094360351563	-1584.157470703125	175.0743103027344	248.8648376464845	-1597.8154296875	67.87239074707031	42.76011276245126	-1508.185913085938	270.1443481445312	48.62451934814462	-1553.675415039062	211.1854400634766	23.07249069213877	-1650.234008789062	50.32627105712891	524.87353515625	-866.228759765625	115.5934982299805	543.8878784179688	-825.3246459960938	90.90552520751953	500.5636901855469	-825.7012939453125	140.4127655029297	304.6323242187501	-727.5397338867188	158.4263916015625	227.9904479980469	-721.2868041992188	117.3101425170898	249.1020660400391	-741.4029541015625	37.98624038696289	41.63402557373052	-840.760986328125	229.2509613037109	45.7422370910645	-762.3900756835938	161.8544921875	35.13533020019536	-676.5631103515625	377.2720947265625	810.6160888671876	-1163.046142578125	325.7161560058594	655.4100952148439	-1161.652709960938	260.2400207519531	910.3892822265626	-1341.112182617188	119.9242324829102	831.7151489257814	-1370.497314453125	80.21397399902344	795.8196411132814	-1331.370361328125	81.73464965820312	790.2057495117189	-1381.15087890625	67.13014984130859	755.6711425781251	-1454.302612304688	113.1209259033203	771.3050537109376	-1497.119384765625	110.1825180053711	802.2397460937501	-1457.519287109375	159.6867980957031	846.0875244140626	-1505.047241210938	285.0276184082031	901.5895385742189	-967.759521484375	162.1686859130859	796.1987915039062	-918.0982666015625	103.18994140625	777.6036376953125	-922.9061279296875	117.6013488769531	758.9436645507812	-844.099609375	160.5984344482422	804.7921142578125	-858.29736328125	160.2231903076172	789.1351318359375	-809.312744140625	192.3353118896484	830.197998046875	-796.3997192382812	0.4548540115356445	0.09467799961566928	-0.3796570003032684	0.2237589955329895	0.07523369789123535	-0.04416120052337646	0.0358240008354187	0.03482130169868469	-0.05495340004563332	0.04605520144104958	0.1832779943943024	-0.7759320139884949	0.3884080052375793	2.749020099639893	-0.3373380005359648	2.782500028610229	0	0	
967	4.83	135.5180969238281	869.7829589843751	-2272.384033203125	255.9830780029297	852.14013671875	-54.04262161254878	539.4002685546875	1039.210205078125	-1141.068115234375	475.1980590820312	1052.423095703125	-1066.720947265625	479.8603820800781	1052.934448242188	-1223.177124023438	300.3893432617188	963.8344726562501	-1143.283813476562	145.1362152099609	856.4743652343751	-1148.447143554688	125.6209487915039	843.1416625976564	-1158.349609375	77.73906707763672	802.9865722656251	-1108.60205078125	87.42325592041016	794.5474243164064	-1156.861083984375	64.11490631103516	765.4888305664064	-1153.190063476562	23.93159675598145	771.3626708984376	-1151.719970703125	-17.47670555114746	727.8548583984376	-1099.086181640625	-23.36335182189941	731.0051879882814	-1148.85205078125	-77.71896362304688	667.1661376953126	-1176.239990234375	-64.44568634033203	671.6035156250001	-1127.032592773438	-114.9717712402344	629.6390380859376	-1136.48095703125	42.11212539672852	555.3806152343751	-1436.575439453125	58.27756118774414	486.0453186035157	-1473.090576171875	84.58848571777344	528.8961791992189	-1472.8193359375	179.6858978271484	310.6545715332032	-1598.709106445312	127.706428527832	253.069061279297	-1584.185302734375	175.3156280517578	248.7694396972657	-1597.839111328125	67.90553283691406	42.78856658935556	-1508.151123046875	270.1606140136719	48.60695648193369	-1553.658203125	211.1868133544922	23.07073211669932	-1650.23046875	50.66276931762695	523.9152221679688	-866.340576171875	115.8837814331055	543.1618041992188	-825.4800415039062	91.29787445068359	499.7836914062501	-825.767578125	140.8228149414062	304.5510559082032	-727.5596923828125	158.7079925537109	227.8817596435547	-721.3048095703125	117.6458358764648	249.0678710937501	-741.4391479492188	38.04110717773438	41.70805358886724	-840.79638671875	229.2756500244141	45.71572494506841	-762.41259765625	161.8740539550781	35.15566253662114	-676.5888671875	377.6108093261719	808.9211425781251	-1163.130493164062	326.0802307128906	653.7072753906251	-1161.744873046875	260.5475769042969	908.7001953125001	-1341.159301757812	120.2416152954102	830.0394897460939	-1370.59033203125	80.51399993896484	794.1543579101564	-1331.468505859375	82.0421142578125	788.5373535156251	-1381.2431640625	67.45343780517578	753.9923706054689	-1454.39990234375	113.455924987793	769.6442260742189	-1497.19287109375	110.4930419921875	800.5673828125001	-1457.578125	159.9942626953125	844.4400024414064	-1505.074829101562	285.4280700683594	899.8533935546876	-967.786865234375	162.6154327392578	794.452880859375	-918.0991821289062	103.6285705566406	775.8735961914062	-922.8958740234375	118.044677734375	757.19140625	-844.1023559570312	161.0245666503906	803.0514526367188	-858.309326171875	160.6685333251953	787.3876953125	-809.324462890625	192.7547302246094	828.4533081054688	-796.418212890625	0.4551849961280823	0.09216579794883731	-0.3754799962043762	0.2169280052185059	0.07465840131044388	-0.04365359991788863	0.03487790003418922	0.03577519953250886	-0.05708539858460426	0.04696699976921082	0.1821150034666062	-0.7796319723129272	0.3892630040645599	2.747189998626709	-0.3360129892826079	2.799829959869385	0	0	
968	4.835	135.6103668212891	868.1725463867189	-2272.38623046875	256.4570007324219	850.2537841796875	-54.07298278808589	539.77099609375	1037.500366210938	-1141.129028320312	475.5575561523438	1050.718505859375	-1066.779663085938	480.240966796875	1051.212768554688	-1223.251220703125	300.746337890625	962.1300659179689	-1143.345092773438	145.4748077392578	854.8278808593751	-1148.466796875	125.9581604003906	841.5170288085939	-1158.394409179688	78.06172943115234	801.3850708007814	-1108.6455078125	87.74060821533203	792.9386596679689	-1156.903686523438	64.44185638427734	763.9272460937501	-1153.248413085938	24.30640029907227	769.8766479492189	-1151.76318359375	-17.10275650024414	726.3834228515626	-1099.118896484375	-22.99969291687012	729.5318603515626	-1148.883544921875	-77.386962890625	665.5949707031251	-1176.289184570312	-64.12611389160156	670.0093994140626	-1127.073364257812	-114.6559906005859	628.0509033203126	-1136.5498046875	42.28277969360352	554.3590698242189	-1436.53564453125	58.60549163818359	485.123260498047	-1473.152709960938	84.83039093017578	528.0159912109376	-1472.811279296875	179.9981689453125	310.5562133789064	-1598.781494140625	127.9641799926758	253.0286102294923	-1584.213623046875	175.5672149658203	248.6720733642579	-1597.864868164062	67.93925476074219	42.81760787963876	-1508.114868164062	270.1773681640625	48.5888328552247	-1553.639770507812	211.1875152587891	23.07004928588877	-1650.227172851562	51.00106430053711	522.9590454101562	-866.466064453125	116.1778793334961	542.4363403320312	-825.6510620117188	91.69113159179688	499.0058288574219	-825.8468627929688	141.2306365966797	304.4704895019532	-727.5863647460938	158.9875946044922	227.7741699218751	-721.3273315429688	117.9799270629883	249.0345916748047	-741.4801025390625	38.0945930480957	41.77815246582036	-840.8328247070312	229.3000030517578	45.68904876708989	-762.4357299804688	161.8938751220703	35.17637634277348	-676.6152954101562	377.9520568847656	807.2295532226564	-1163.217163085938	326.4502563476562	652.0078125000001	-1161.843017578125	260.8553466796875	907.0176391601564	-1341.206420898438	120.5623779296875	828.3627929687501	-1370.68701171875	80.81736755371094	792.4871215820314	-1331.570556640625	82.35390472412109	786.8665771484376	-1381.338623046875	67.7823486328125	752.3112182617189	-1454.49951171875	113.7967147827148	767.9841918945314	-1497.268432617188	110.8076858520508	798.8946533203126	-1457.638793945312	160.3054656982422	842.7958374023439	-1505.102416992188	285.8301696777344	898.1123046875001	-967.8133544921875	163.0541229248047	792.71142578125	-918.1043701171875	104.0603179931641	774.1506958007812	-922.8929443359375	118.4789352416992	755.4480590820312	-844.1106567382812	161.4446716308594	801.3174438476562	-858.323974609375	161.106689453125	785.645751953125	-809.3400268554688	193.1703186035156	826.7105102539062	-796.4379272460938	0.4557430148124695	0.0896968021988869	-0.3697890043258667	0.2085929960012436	0.07394380122423172	-0.04323960095643996	0.03395510092377663	0.03683130070567132	-0.05873040109872818	0.0482029989361763	0.1814019978046418	-0.7838159799575806	0.3897700011730194	2.745500087738037	-0.334789991378784	2.816159963607788	0	0	
969	4.84	135.7035980224609	866.5696411132814	-2272.387451171875	256.9300231933594	848.3692626953125	-54.10220336914058	540.14599609375	1035.791137695312	-1141.205444335938	475.9264831542969	1049.017700195312	-1066.848510742188	480.6200866699219	1049.487182617188	-1223.336181640625	301.1059875488281	960.4280395507814	-1143.4013671875	145.8121490478516	853.1831054687501	-1148.488159179688	126.2950744628906	839.8930664062501	-1158.44140625	78.38455963134766	799.7805786132814	-1108.693603515625	88.05862426757812	791.3297119140626	-1156.951293945312	64.76980590820312	762.3632812500001	-1153.31298828125	24.6813907623291	768.3865966796876	-1151.81494140625	-16.72796058654785	724.9061279296876	-1099.161254882812	-22.63454627990723	728.0531616210939	-1148.924560546875	-77.04846954345703	664.0214843750001	-1176.349365234375	-63.8017578125	668.4108276367189	-1127.125854492188	-114.3334350585938	626.4583740234376	-1136.632080078125	42.46866226196289	553.3319702148439	-1436.505737304688	58.95037841796875	484.1960754394532	-1473.224853515625	85.09168243408203	527.1286010742189	-1472.810668945312	180.3235778808594	310.4551086425782	-1598.854370117188	128.2315368652344	252.9877319335938	-1584.244018554688	175.8283996582031	248.5727844238282	-1597.894653320312	67.97367858886719	42.84749603271494	-1508.077392578125	270.194580078125	48.57023620605478	-1553.620239257812	211.1875	23.07071685791026	-1650.224243164062	51.33917999267578	522.0032958984375	-866.6038818359375	116.4735107421875	541.7105712890625	-825.8362426757812	92.08341979980469	498.2290039062501	-825.9374389648438	141.6355590820312	304.3901977539063	-727.6173095703125	159.2655639648438	227.667465209961	-721.3529663085938	118.3121185302734	249.0015563964844	-741.5239868164062	38.14679336547852	41.84480285644536	-840.8703002929688	229.3240051269531	45.66222381591802	-762.45947265625	161.9139709472656	35.19742965698246	-676.6425170898438	378.2939453125	805.5399780273439	-1163.305419921875	326.8239440917969	650.3106079101564	-1161.947021484375	261.1621704101562	905.3414306640626	-1341.252685546875	120.8854675292969	826.6843261718751	-1370.787841796875	81.12342834472656	790.8168945312501	-1331.676879882812	82.66981506347656	785.1920166015626	-1381.4375	68.11723327636719	750.6261596679689	-1454.601440429688	114.1436080932617	766.3238525390626	-1497.346069335938	111.1263809204102	797.2205200195314	-1457.701171875	160.6200103759766	841.1542358398439	-1505.130493164062	286.2322387695312	896.3651123046876	-967.838623046875	163.4813690185547	790.9745483398438	-918.1129760742188	104.4816284179688	772.43505859375	-922.8969116210938	118.9007415771484	753.7138671875	-844.1236572265625	161.8559112548828	799.58984375	-858.3414306640625	161.5348815917969	783.9091186523438	-809.3589477539062	193.5804443359375	824.9694213867188	-796.4585571289062	0.4563429951667786	0.08735270053148272	-0.3624230027198792	0.199412003159523	0.07313240319490433	-0.04292869940400123	0.03311840072274208	0.03801820054650307	-0.05977139994502068	0.04978470131754875	0.1813230067491532	-0.7883589863777161	0.3899219930171967	2.743940114974976	-0.3337909877300261	2.83119010925293	0	0	
